<?xml version="1.0" encoding="UTF-8" standalone="no"?>
<!-- Created with Inkscape (http://www.inkscape.org/) -->

<svg
   xmlns:dc="http://purl.org/dc/elements/1.1/"
   xmlns:cc="http://creativecommons.org/ns#"
   xmlns:rdf="http://www.w3.org/1999/02/22-rdf-syntax-ns#"
   xmlns:svg="http://www.w3.org/2000/svg"
   xmlns="http://www.w3.org/2000/svg"
   xmlns:sodipodi="http://sodipodi.sourceforge.net/DTD/sodipodi-0.dtd"
   xmlns:inkscape="http://www.inkscape.org/namespaces/inkscape"
   width="3000"
   height="1288.4878"
   viewBox="0 0 3000 1288.4878"
   id="svg7420"
   version="1.1"
   inkscape:version="0.91 r13725"
   sodipodi:docname="falabella.svg">
  <title
     id="title8259">Falabella</title>
  <defs
     id="defs7422" />
  <sodipodi:namedview
     id="base"
     pagecolor="#ffffff"
     bordercolor="#666666"
     borderopacity="1.0"
     inkscape:pageopacity="0.0"
     inkscape:pageshadow="2"
     inkscape:zoom="0.31722973"
     inkscape:cx="1500"
     inkscape:cy="644.24389"
     inkscape:document-units="px"
     inkscape:current-layer="layer1"
     showgrid="false"
     inkscape:showpageshadow="false"
     fit-margin-top="20"
     fit-margin-right="20"
     fit-margin-bottom="20"
     fit-margin-left="20"
     units="px"
     inkscape:window-width="1366"
     inkscape:window-height="715"
     inkscape:window-x="-8"
     inkscape:window-y="-8"
     inkscape:window-maximized="1" />
  <metadata
     id="metadata7425">
    <rdf:RDF>
      <cc:Work
         rdf:about="">
        <dc:format>image/svg+xml</dc:format>
        <dc:type
           rdf:resource="http://purl.org/dc/dcmitype/StillImage" />
        <dc:title>Falabella</dc:title>
      </cc:Work>
    </rdf:RDF>
  </metadata>
  <g
     inkscape:label="Capa 1"
     inkscape:groupmode="layer"
     id="layer1"
     transform="translate(-220.85274,729.83729)">
    <g
       id="g5478"
       transform="matrix(44.043031,0,0,-44.043031,1199.5374,139.62065)"
       style="fill:#bfd732;fill-opacity:1;stroke:none">
      <path
         d="m 0,0 c -0.633,0.114 -0.711,0.481 -0.552,1.522 0.189,1.239 2.719,14.297 2.719,14.297 l -1.631,0 c 0,0 -2.49,-12.883 -2.7,-14.13 -0.33,-1.955 0.681,-2.234 1.223,-2.316 0.995,-0.149 1.654,0.017 1.654,0.017 L 0.816,0.043 C 0.816,0.043 0.441,-0.08 0,0 m 32.924,15.819 -1.631,0 c 0,0 -2.491,-12.883 -2.7,-14.13 -0.33,-1.955 0.681,-2.234 1.223,-2.316 0.995,-0.149 1.654,0.017 1.654,0.017 l 0.103,0.653 c 0,0 -0.375,-0.123 -0.816,-0.043 -0.633,0.114 -0.711,0.481 -0.552,1.522 0.189,1.239 2.719,14.297 2.719,14.297 M 7.511,2.796 C 7.321,2.144 6.539,-0.142 4.712,-0.142 c -2.188,0 -1.116,3.311 -0.947,3.946 0.168,0.634 0.961,2.987 2.723,2.987 2.14,0 1.213,-3.345 1.023,-3.995 m 0.776,3.725 -0.051,0 C 7.795,7.344 7.009,7.59 6.186,7.59 3.707,7.59 2.288,5.536 1.87,3.566 1.273,0.748 2.12,-0.865 4.463,-0.865 c 1.019,0 1.786,0.254 2.778,1.172 l 0.435,-0.918 1.016,0 1.513,7.958 -1.744,0 -0.174,-0.826 z m 8.751,-3.733 c -0.171,-0.649 -0.96,-2.936 -2.599,-2.936 -1.962,0 -1.312,3.312 -1.149,3.945 0.264,1.03 0.842,2.914 2.466,2.914 2.212,0 1.454,-3.27 1.282,-3.923 m -0.625,4.797 c -0.964,0 -2.234,-0.573 -2.753,-1.311 l 1.846,9.604 -1.639,0 c 0,0 -2.498,-13.296 -3.203,-16.492 l 1.029,0 0.581,0.915 c 0.603,-0.918 1.262,-1.172 2.281,-1.172 2.343,0 3.873,1.613 4.47,4.431 0.417,1.97 -0.132,4.025 -2.612,4.025 M -5.805,2.796 c -0.192,-0.652 -0.974,-2.938 -2.801,-2.938 -2.187,0 -1.116,3.311 -0.947,3.946 0.168,0.634 0.962,2.987 2.724,2.987 2.14,0 1.214,-3.345 1.024,-3.995 m 0.775,3.725 -0.052,0 c -0.44,0.823 -1.225,1.069 -2.049,1.069 -2.479,0 -3.898,-2.054 -4.316,-4.024 -0.597,-2.818 0.25,-4.431 2.592,-4.431 1.02,0 1.786,0.254 2.779,1.172 l 0.434,-0.918 1.017,0 1.513,7.958 -1.744,0 -0.174,-0.826 z m 31.062,-2.565 -4.153,0 c 0.278,1.069 1.154,2.75 2.686,2.75 1.665,0 1.71,-1.681 1.467,-2.75 m -1.318,3.605 c -2.18,0 -4.12,-1.474 -4.576,-3.794 -0.768,-3.919 2.14,-4.672 3.366,-4.672 1.052,0 1.877,0.366 2.506,0.833 L 25.457,0.572 C 25.015,0.301 24.499,0.103 23.928,0.103 c -2.029,0 -2.315,1.725 -2.21,2.932 l 5.828,0 c 0.596,1.981 -0.047,4.526 -2.832,4.526 M 35.236,0 c -0.633,0.114 -0.711,0.481 -0.552,1.522 0.188,1.239 2.719,14.297 2.719,14.297 l -1.631,0 c 0,0 -2.49,-12.883 -2.7,-14.13 -0.331,-1.955 0.682,-2.234 1.223,-2.316 0.995,-0.149 1.654,0.017 1.654,0.017 l 0.102,0.653 c 0,0 -0.375,-0.123 -0.815,-0.043 m 7.511,2.796 c -0.191,-0.652 -0.972,-2.938 -2.8,-2.938 -2.187,0 -1.115,3.311 -0.947,3.946 0.168,0.634 0.963,2.987 2.723,2.987 2.14,0 1.214,-3.345 1.024,-3.995 m 0.949,4.551 -0.173,-0.826 -0.051,0 c -0.442,0.823 -1.227,1.069 -2.05,1.069 -2.479,0 -3.899,-2.054 -4.316,-4.024 -0.598,-2.818 0.25,-4.431 2.593,-4.431 1.018,0 1.785,0.254 2.778,1.172 l 0.433,-0.918 1.017,0 1.513,7.958 -1.744,0 z m -55.21,0.554 -3.054,0 1.224,6.421 c 0.385,1.939 0.602,2.775 1.205,3.486 0.327,0.387 0.602,0.619 1.075,0.753 0.362,0.099 0.954,0.001 0.954,0.001 l 0.082,0.676 c -0.273,0.043 -0.704,0.049 -0.704,0.049 -1.102,-0.007 -2.135,-0.52 -2.927,-1.429 -1.159,-1.312 -1.472,-2.879 -1.81,-4.677 l -1.005,-5.28 -2.98,0 -0.187,-0.855 3.004,0 -2.121,-11.143 c -0.387,-1.938 -0.524,-2.444 -1.095,-3.309 -0.358,-0.54 -0.754,-0.792 -1.364,-0.896 -0.104,-0.017 -0.232,-0.018 -0.349,-0.017 l -0.201,-0.732 0.378,-0.009 c 1.109,0 2.147,0.514 2.945,1.426 1.159,1.311 1.471,2.88 1.81,4.677 l 1.904,10.003 3.031,0 0.185,0.855 z"
         style="fill:#bfd732;fill-opacity:1;fill-rule:nonzero;stroke:none"
         id="path5480"
         inkscape:connector-curvature="0" />
    </g>
  </g>
</svg>
